<svg version="1.1" id="Layer_1" xmlns="http://www.w3.org/2000/svg" xmlns:xlink="http://www.w3.org/1999/xlink" x="0px" y="0px"
	 width="100%" viewBox="0 0 992 992" enable-background="new 0 0 992 992" xml:space="preserve">
     
<!-- Fondo Circular (Añadido para que parezca el logo original) -->
<circle cx="496" cy="496" r="490" fill="#FFF0F3" stroke="#AD6D7D" stroke-width="5"/>

<!-- Grupo de silueta principal (Texto y bordes del gato) - Color: Rosa Oscuro/Marrón -->
<g fill="#AD6D7D">
    <path opacity="1.000000" stroke="none" 
        d="
    M203.927032,644.920776 
        C192.469498,619.022400 184.732147,592.395081 180.111679,564.881409 
        C175.377594,536.691040 174.373413,508.310120 176.557892,479.808228 
        C180.092682,433.688080 192.927628,390.228729 214.835266,349.594269 
        C231.882828,317.974243 254.011597,290.143036 280.548615,265.863007 
        C312.693634,236.451996 349.436127,214.689011 390.496399,200.321350 
        C413.798706,192.167496 437.802002,187.074936 462.427429,184.464600 
        C476.559082,182.966644 490.645020,182.444153 504.781281,182.715317 
        C527.453735,183.150238 549.876831,185.938782 571.989929,191.003403 
        C620.199707,202.044937 663.467590,223.374588 701.989380,254.245865 
        C730.991455,277.488068 754.764587,305.308472 773.812805,337.288086 
        C791.354370,366.738129 803.948059,398.137238 811.736694,431.407593 
        C819.247437,463.490967 821.750854,496.015991 819.617432,529.004517 
        C817.541138,561.109436 811.726074,592.409180 801.041260,622.667053 
        C791.522583,649.622131 778.223389,674.774963 762.150513,698.479004 
        C744.331665,724.757812 722.640015,747.516663 698.398804,767.730103 
        C677.360291,785.272949 654.103455,799.616638 629.100830,811.039978 
        C608.424744,820.486633 587.042175,827.944397 564.865723,832.675598 
        C541.248352,837.714172 517.300476,840.129211 493.032013,839.539612 
        C452.789185,838.561829 413.991730,830.804749 376.964691,815.138489 
        C329.591919,795.095093 288.762146,765.886292 255.355270,726.499512 
        C234.416977,701.813293 217.114655,674.906250 203.927032,644.920776 
    M300.685028,764.816895 
        C326.734161,785.121399 354.545135,802.303345 385.610687,813.777649 
        C387.105286,811.193542 386.370331,809.456177 385.962463,807.684143 
        C381.928741,790.157349 379.124237,772.423401 377.764221,754.500183 
        C376.428375,736.895325 376.023010,719.278137 377.592712,701.624573 
        C379.087219,684.816895 381.327209,668.240295 388.140320,652.608459 
        C388.654663,651.428345 389.715698,650.124878 388.381226,648.968811 
        C384.007294,645.179688 385.760742,640.521240 386.307831,635.974915 
        C386.799957,631.884827 389.447083,628.324463 389.396179,624.143677 
        C382.709259,621.883728 381.982910,620.467834 383.406799,613.828369 
        C384.469086,608.875183 386.490173,604.328857 388.935974,599.959900 
        C395.790497,587.715759 403.769348,576.241821 412.939270,565.618530 
        C416.969086,560.950012 417.639618,556.322449 414.891785,550.503662 
        C410.630768,541.480408 407.618500,531.920654 405.168060,522.226379 
        C401.143005,506.302612 399.076477,490.449158 407.346619,475.076904 
        C407.458710,474.868500 407.209381,474.465668 407.085297,473.985657 
        C404.321228,472.548676 401.294556,473.591949 398.377472,473.391418 
        C396.931335,473.291992 395.122955,473.707794 394.913300,471.532745 
        C394.724976,469.579071 396.210236,468.997955 397.773407,468.752045 
        C401.715759,468.131836 405.653351,467.419098 409.621185,467.040466 
        C413.645233,466.656494 415.819519,464.410797 417.187500,460.786255 
        C414.514618,458.242767 411.327759,458.397949 408.205505,458.251282 
        C406.020508,458.148651 403.416443,458.110992 403.551117,455.070770 
        C403.679352,452.175476 406.474304,452.256805 408.175720,452.717804 
        C420.121490,455.954315 430.661163,452.221893 441.336792,447.277649 
        C445.653961,445.278198 449.531555,443.386108 452.778046,439.814514 
        C464.077240,427.383972 476.806000,416.935638 492.458435,410.101929 
        C497.770630,407.782654 503.512573,404.086426 506.508667,399.392212 
        C510.716492,392.799500 515.867981,392.095001 522.219727,392.975525 
        C525.222778,393.391846 526.290833,392.149628 527.301941,389.619965 
        C529.418274,384.325012 532.398926,382.288574 537.342957,384.051147 
        C542.362122,385.840546 546.560486,384.931732 551.212708,383.275757 
        C556.199951,381.500458 561.036499,383.196808 562.732239,387.379333 
        C564.149597,390.875183 565.934143,390.489746 568.930481,389.929230 
        C576.001648,388.606628 583.435913,387.097351 586.960083,396.326263 
        C587.241638,397.063477 588.495728,397.532013 589.388489,397.912903 
        C591.664917,398.884155 593.380493,400.446991 594.138916,402.762848 
        C594.962463,405.277649 596.710388,406.007019 599.086975,406.075195 
        C605.574158,406.261322 612.064270,406.408356 618.545471,406.728394 
        C633.166992,407.450378 647.795105,408.141541 662.259399,410.639191 
        C666.934753,411.446503 669.559143,414.256317 670.408386,418.873199 
        C671.474670,424.670715 670.275452,430.136810 667.952087,435.402100 
        C665.241577,441.544556 661.614929,447.104553 656.966736,451.978912 
        C655.048218,453.990753 654.679810,456.328552 655.605957,458.919556 
        C656.620667,461.758209 658.997131,461.610596 661.378235,461.725342 
        C664.195374,461.861115 667.003113,462.484344 669.810669,462.457214 
        C674.039307,462.416382 678.716492,464.320496 682.380371,461.378357 
        C685.455017,458.909393 688.682129,458.276093 692.158813,458.791168 
        C696.311584,459.406433 700.320190,459.350098 704.504150,458.884979 
        C712.463440,458.000122 718.926025,460.846619 722.685425,468.341187 
        C723.983582,470.929291 726.077209,472.298340 728.654114,473.298859 
        C731.595337,474.440857 734.563416,475.586456 737.338623,477.069519 
        C744.720154,481.014099 746.002197,484.323700 742.719543,492.134399 
        C733.969666,512.953857 720.694519,530.821716 706.066223,547.801086 
        C702.854675,551.528748 699.943237,555.670105 696.822021,559.305481 
        C693.487305,563.189514 688.318359,565.882019 684.431396,569.714905 
        C678.691040,575.375366 678.744629,577.411682 685.205444,582.156128 
        C711.129333,601.193237 730.425293,625.701416 744.750671,654.290405 
        C749.754028,664.275574 753.911194,674.625305 757.384949,685.248718 
        C757.981201,687.072144 758.273804,689.468933 760.794373,689.651245 
        C762.942566,689.806641 763.819641,687.828186 764.811707,686.333740 
        C766.372314,683.982910 767.835815,681.566223 769.300171,679.153015 
        C793.488464,639.289795 807.810852,596.011536 813.588989,549.873779 
        C816.849243,523.841431 816.886108,497.653748 814.329407,471.601715 
        C811.838623,446.220673 805.793457,421.482025 797.139343,397.462067 
        C783.916626,360.761749 764.852844,327.400848 739.543701,297.650024 
        C704.225098,256.133209 660.731201,226.172226 609.854980,207.130844 
        C561.802246,189.146210 512.075012,183.628220 461.049683,189.184799 
        C427.307129,192.859283 395.075562,201.800629 364.285980,215.969345 
        C334.565399,229.646133 307.608643,247.448563 283.465057,269.635834 
        C253.666595,297.019836 229.789001,328.737549 211.972946,365.030701 
        C200.923538,387.539490 192.795166,411.092316 187.285965,435.551392 
        C182.518921,456.715454 179.884140,478.144592 179.358170,499.829590 
        C178.852356,520.683899 180.397568,541.431580 183.664841,561.995483 
        C189.618454,599.466980 201.695236,634.954712 220.020477,668.187683 
        C240.521683,705.366821 267.398132,737.329468 300.685028,764.816895 
    M414.158112,572.640930 
        C405.137390,584.012024 396.714630,595.776489 390.375732,608.904724 
        C389.349243,611.030579 388.189636,613.443359 389.597198,615.551453 
        C391.198883,617.950378 393.527832,615.986145 395.531921,615.640442 
        C396.853790,615.412415 398.275116,614.949036 399.169678,616.324768 
        C399.995575,617.594788 399.343231,618.900208 398.751312,620.107239 
        C397.065643,623.544739 395.228882,626.915466 393.702148,630.421570 
        C392.228699,633.805420 390.405579,637.228821 391.725891,641.042358 
        C393.407349,641.467957 394.285950,640.547729 395.296875,640.039917 
        C396.682770,639.343689 398.157623,638.646667 399.397705,640.073303 
        C400.706512,641.579041 399.428223,642.827759 398.664612,644.086487 
        C397.630463,645.791138 396.546051,647.472534 395.627747,649.239075 
        C384.902893,669.870483 382.619232,692.391785 381.429443,715.035583 
        C380.784058,727.319031 381.043274,739.672363 382.353729,751.951172 
        C383.394806,761.705994 384.500244,771.453979 385.536865,781.209290 
        C386.452942,789.830383 395.835419,793.686035 396.472504,802.660217 
        C402.055206,799.626099 407.249146,797.686707 412.558105,798.940063 
        C417.339386,800.068909 418.103149,797.950256 419.077301,794.198364 
        C422.152222,782.355347 428.350403,772.690674 438.924561,765.879395 
        C446.401184,761.063416 454.380554,758.441467 463.562256,758.372009 
        C462.980652,756.340393 462.639130,754.906006 462.161804,753.518311 
        C458.372467,742.501465 454.518982,731.506531 450.786896,720.470398 
        C450.150970,718.589905 448.393005,715.920166 451.358887,714.871765 
        C454.600739,713.725708 454.912781,716.949585 455.638733,719.058533 
        C457.426361,724.251465 459.158112,729.463867 460.890778,734.675598 
        C469.933380,761.874817 482.011261,787.909119 491.658569,814.875183 
        C493.395355,819.729858 494.843811,824.689880 496.661194,829.512329 
        C497.293762,831.190735 498.622833,832.901184 500.783386,832.490906 
        C503.020477,832.066040 502.360016,829.968628 502.640289,828.396240 
        C503.034760,826.183105 501.412079,822.341370 504.907928,822.325378 
        C508.356598,822.309570 506.927185,826.170288 507.315491,828.408264 
        C508.022430,832.483154 510.389771,834.544128 514.465759,834.656006 
        C518.646484,834.770813 519.353516,831.802307 519.440002,828.631653 
        C519.621765,821.967834 521.653992,815.823975 524.822632,810.111572 
        C531.117676,798.762573 537.769958,787.612000 544.095032,776.279236 
        C554.899109,756.921387 563.900024,736.663696 573.549988,716.730408 
        C574.419312,714.934631 575.265015,712.527832 577.795288,713.743835 
        C580.390015,714.990845 578.861511,717.252686 578.057495,718.950317 
        C571.785522,732.192200 565.529053,745.442810 559.085327,758.601440 
        C549.998352,777.157776 539.429749,794.906372 529.286194,812.888062 
        C526.764465,817.358337 524.704346,822.207397 524.414795,827.442078 
        C524.271545,830.031677 524.462952,833.324463 527.994263,833.626099 
        C531.477356,833.923645 535.356628,834.656433 537.308167,829.996887 
        C544.466492,812.906006 559.212280,806.365906 575.924805,802.797180 
        C577.697510,802.418579 580.457581,801.926697 580.948853,804.596985 
        C581.508362,807.638550 578.643616,807.155579 576.824280,807.539551 
        C564.773376,810.083252 554.132141,815.169006 546.036316,824.752075 
        C544.699402,826.334473 542.485046,828.047485 543.887634,830.352600 
        C545.219910,832.542053 547.818542,831.721741 549.881287,831.359314 
        C580.089417,826.053589 608.779114,816.123230 636.287842,802.693542 
        C666.187317,788.096680 692.706665,768.708191 716.574829,745.617798 
        C719.421265,742.864075 722.330078,740.114441 724.102234,736.692627 
        C723.781311,734.959167 722.530762,734.274353 721.604065,733.356384 
        C714.016479,725.840698 713.620056,718.414978 720.062866,709.897217 
        C723.069397,705.922485 727.268860,703.527344 731.069580,700.585144 
        C732.527283,699.456848 734.029419,698.392456 734.488586,696.448120 
        C736.096252,689.639709 730.274292,680.341248 723.433533,678.795044 
        C716.169983,677.153259 715.104065,675.523804 716.009705,668.017334 
        C717.137573,658.668701 721.137390,650.488770 726.314575,642.846252 
        C728.832703,639.128906 728.471741,636.260437 725.903259,632.549622 
        C711.793701,612.164124 694.780518,594.829956 673.860596,581.404419 
        C668.349976,577.867920 668.346558,575.909363 673.502686,571.692749 
        C681.898010,564.827209 689.703125,557.328064 697.001038,549.323364 
        C711.188965,533.761597 723.969116,517.164490 733.712769,498.389404 
        C735.561035,494.828125 737.158997,491.197998 737.605957,485.999115 
        C729.563721,493.134644 721.661377,498.014435 712.395020,500.745514 
        C706.198730,502.571716 700.264893,505.298920 694.237610,507.683655 
        C691.206421,508.882965 689.162842,510.995880 689.260193,514.445190 
        C689.348450,517.573914 687.714783,519.483032 685.174805,520.730347 
        C682.038879,522.270203 678.815125,523.634277 675.607178,525.023315 
        C673.802429,525.804749 672.042053,525.612610 670.353760,524.574646 
        C669.350281,523.957703 668.237244,523.410889 668.234985,522.043701 
        C668.232727,520.649292 669.319031,520.002625 670.422729,519.613647 
        C672.457947,518.896423 674.550110,518.342041 676.612793,517.701233 
        C679.963257,516.660339 680.878174,514.992737 677.713257,512.623169 
        C674.243958,510.025665 675.628235,508.309021 678.620239,506.828522 
        C679.661621,506.313263 680.762695,505.895081 681.871643,505.543488 
        C698.102173,500.397186 713.672852,493.664459 728.842041,485.977325 
        C730.644653,485.063873 733.138916,485.214813 734.223694,482.958099 
        C727.244263,477.198303 724.767151,477.026733 718.030090,481.550751 
        C715.308960,483.378021 712.280273,484.041107 708.995483,483.743378 
        C701.799316,483.091248 694.731323,480.930634 689.983154,475.796448 
        C682.983459,468.227722 674.198669,468.165375 665.317078,467.332977 
        C661.675842,466.991699 658.038879,466.593811 654.392456,466.323547 
        C652.521118,466.184875 651.359436,465.334778 650.562073,463.646545 
        C642.293274,446.140503 628.024780,434.670654 611.695190,425.375793 
        C605.472290,421.833740 598.949158,418.851257 592.088440,416.687042 
        C588.261353,415.479736 585.170349,417.000763 582.575195,419.551422 
        C580.174744,421.910706 582.709900,423.727814 583.643738,425.708740 
        C586.178040,431.084351 584.580872,434.450104 578.751038,436.202454 
        C576.397339,436.909943 573.909424,437.128479 572.026245,439.146088 
        C564.055542,447.685608 558.775879,447.717346 550.956482,439.437164 
        C546.041992,434.233093 546.042053,434.233124 541.491394,439.910797 
        C536.616821,445.992523 530.055115,447.123413 523.973022,442.604462 
        C521.696716,440.913147 519.498901,440.101166 516.665161,440.156006 
        C513.848999,440.210510 511.036072,439.523712 508.446289,438.297028 
        C505.338531,436.824982 503.261627,433.890442 504.914368,431.042786 
        C508.023773,425.685211 505.565552,423.607513 501.101501,421.828827 
        C500.370697,421.537628 499.786987,420.819946 499.199829,420.234619 
        C494.322418,415.372284 493.529938,415.315826 487.285858,418.726746 
        C474.225159,425.861237 463.437103,435.665802 454.016296,447.047481
        C451.989746,449.495880 449.688721,450.853973 446.542145,451.497406 
        C442.407013,452.342987 438.140320,453.291016 434.911255,456.696136 
        C435.940979,458.687897 437.831970,459.154694 439.319458,460.113556 
        C440.708862,461.009155 441.613708,462.163940 441.029907,463.850311 
        C440.374664,465.742859 438.592194,465.561005 437.219330,465.237640 
        C434.972443,464.708313 432.812775,463.794159 430.633453,462.995605 
        C425.563477,461.137970 424.228760,461.756348 422.087677,467.252258 
        C424.530670,468.508240 427.068115,469.682709 429.461975,471.099640 
        C430.620544,471.785370 431.452545,473.006805 430.757996,474.502502 
        C430.107361,475.903534 428.799530,476.346191 427.396240,476.022095 
        C425.127441,475.498077 422.806244,475.012634 420.678436,474.108063 
        C416.967041,472.530365 414.748535,473.878021 412.941162,477.137451 
        C409.330139,483.649628 406.916656,490.375946 407.143829,498.012909 
        C407.642548,514.780579 411.511627,531.008240 419.204773,545.542419 
        C425.173035,556.817871 422.884155,564.408508 414.158112,572.640930 
    M548.753357,413.215698 
        C539.612122,418.958008 533.501648,413.115845 527.287598,407.597473 
        C527.536987,405.831024 528.893799,405.254608 530.319397,404.684174 
        C532.712158,403.726624 535.183655,403.703217 537.695862,403.864624 
        C540.348511,404.035004 541.837646,402.712219 541.917542,400.096497 
        C541.977234,398.146118 542.281616,395.581024 539.922180,394.976501 
        C537.157471,394.268280 536.270569,396.564056 535.864563,398.865295 
        C535.351562,401.773315 533.445923,402.162903 531.025146,401.508148 
        C529.420410,401.074097 527.816162,400.605957 526.264526,400.014465 
        C522.326111,398.512970 518.590698,398.501312 515.936096,402.192139 
        C513.860840,405.077484 511.059723,408.084564 512.894470,412.099792 
        C514.672852,415.991638 517.486267,418.599823 522.301147,417.876831 
        C523.797302,417.652130 525.464905,417.881592 526.132324,419.541016 
        C526.860474,421.351471 525.509705,422.343689 524.159302,423.065247 
        C520.764404,424.879181 521.140625,427.658142 522.508301,430.339783 
        C526.874878,438.901276 534.139343,439.441498 539.661316,431.728088 
        C540.339172,430.781250 540.947693,429.784882 541.591309,428.813477 
        C544.338806,424.666962 546.409729,424.389923 549.770935,427.912140 
        C551.336914,429.553131 553.136719,431.343597 555.313721,430.592590 
        C560.205017,428.905273 565.132874,429.315674 570.105530,429.295837 
        C571.635742,429.289734 573.707153,429.275848 574.206970,427.189423 
        C574.647949,425.348602 572.972778,424.499664 571.774780,423.786194 
        C567.973450,421.522278 566.073181,418.550751 566.820496,413.940033 
        C567.098755,412.223541 566.705078,409.499664 564.344971,409.872925 
        C559.339661,410.664703 553.887573,409.466980 548.753357,413.215698 
    M431.276611,799.779968 
        C431.172272,802.626282 431.446075,805.343811 432.686005,808.028503 
        C433.620605,810.052124 434.769287,811.465881 437.006775,811.549744 
        C439.430573,811.640808 440.460663,809.940552 441.099091,807.898438 
        C441.855988,805.477783 443.185272,803.394348 446.022858,804.087585 
        C449.019012,804.819580 449.216034,807.542664 449.216492,810.133057 
        C449.217010,812.937988 447.971985,815.554688 448.452606,818.511780 
        C448.945648,821.545410 449.838928,822.721130 453.214478,822.572388 
        C458.998322,822.317566 463.629333,819.441956 468.343170,816.801392 
        C470.656891,815.505249 472.243866,813.184998 470.528900,810.246826 
        C465.069183,810.271851 462.735016,816.679749 457.432800,816.422180 
        C455.880402,813.265686 457.672974,811.292114 458.667084,809.049744 
        C462.092712,801.322510 462.400635,793.663330 457.714111,786.234680 
        C455.915649,783.383911 453.711548,782.468689 451.451202,785.460815 
        C448.502747,789.363892 445.620972,790.111328 441.348053,787.162842 
        C437.621887,784.591675 434.641083,785.940125 433.353271,790.193054 
        C432.489594,793.045288 432.013306,796.014832 431.276611,799.779968 
    M460.148102,777.134216 
        C463.548401,773.817749 462.458710,770.085388 460.531158,766.790649 
        C459.042694,764.246521 455.696136,764.023804 454.176636,766.214905 
        C451.542511,770.013245 448.448303,772.894470 444.424011,775.027954 
        C443.010529,775.777283 443.108978,777.232178 444.193359,778.407715 
        C445.069366,779.357422 446.417786,779.924805 447.168762,778.712524 
        C450.742767,772.943298 455.207947,776.393799 460.148102,777.134216 
    M559.294250,401.665527 
        C556.481018,400.818542 554.539673,399.524139 555.298279,395.983582 
        C555.747253,393.888153 554.509399,392.288269 552.267029,392.406067 
        C550.121216,392.518768 550.520935,394.200897 550.163940,395.938629 
        C548.668640,403.215393 551.430481,405.745392 558.453308,404.717560 
        C559.366699,404.583893 560.369446,405.242340 561.350220,405.340790 
        C562.600098,405.466278 563.652527,405.064362 564.037231,403.446381 
        C563.291138,401.636780 561.633545,401.659424 559.294250,401.665527 
    z"/>
    <path opacity="1.000000" stroke="none" 
        d="
    M445.913696,259.413147 
        C438.593628,257.068085 435.483093,252.096939 435.278137,245.014374 
        C435.080597,238.189072 437.863770,232.914459 443.993134,229.967316 
        C455.473297,224.447372 467.412506,222.587509 479.751526,226.984039 
        C485.179474,228.918106 487.441711,233.656387 486.283630,239.980133 
        C485.466125,244.443878 481.920654,246.893280 476.061523,246.618835 
        C471.591827,246.409454 467.147003,245.714066 462.679565,245.396912 
        C459.709442,245.186066 457.208130,246.219406 455.360718,249.047501 
        C457.984650,252.465683 461.860535,252.386627 465.285065,252.541611 
        C470.497284,252.777527 475.529327,253.827774 480.498535,255.095261 
        C487.830017,256.965271 492.301910,261.786896 493.102051,269.454437 
        C493.900787,277.108917 491.965454,283.846222 484.827881,287.828766 
        C472.442078,294.739655 459.444366,295.032928 446.295624,290.300049 
        C442.114075,288.794891 438.672821,286.094025 437.755920,281.297516 
        C436.171570,273.009216 440.545654,267.829041 449.070648,267.600403 
        C452.972626,267.495758 456.621643,268.538483 460.352600,269.368286 
        C466.614319,270.761047 473.059143,269.271057 472.394073,266.856232 
        C470.918976,261.500336 465.600189,263.167572 461.894226,262.550354 
        C456.658783,261.678406 451.364075,261.226868 445.913696,259.413147 
    z"/>
    <path opacity="1.000000" stroke="none" 
        d="
    M525.483521,248.939255 
        C525.979187,247.352158 527.048767,246.286255 526.549927,244.747986 
        C524.641907,243.483780 522.770935,244.571060 520.874878,244.939499 
        C512.220886,246.621124 506.130096,241.572510 506.681091,233.191010 
        C507.113037,226.620575 511.440582,222.787537 518.092163,223.709885 
        C531.554871,225.576675 544.983643,227.694855 558.410645,229.809494 
        C562.919250,230.519562 566.106018,232.972473 566.882874,237.718536 
        C567.602966,242.117462 566.542297,246.107361 562.848633,248.809494 
        C558.642883,251.886230 554.040710,251.054184 549.550049,249.304855 
        C547.576233,248.535919 546.369995,246.356705 543.294067,246.057816 
        C543.738586,251.326691 544.625916,256.404358 543.492065,261.623260 
        C541.842712,269.214447 541.309631,277.040771 540.009949,284.717651 
        C538.908142,291.225708 534.806152,294.062531 528.332825,293.303589 
        C522.394592,292.607330 518.859985,288.562195 519.815125,282.112335 
        C521.439941,271.139862 522.165405,259.997406 525.483521,248.939255 
    z"/>
    <path opacity="1.000000" stroke="none" 
        d="
    M339.757080,727.080322 
        C337.498383,733.780212 331.263000,733.817688 325.868103,736.221436 
        C330.339722,738.643372 334.662476,737.458923 338.766968,737.625305 
        C342.958527,737.795227 345.376190,739.359192 345.479828,743.821838 
        C345.574524,747.899414 343.719940,750.253845 339.637421,750.285339 
        C327.311432,750.380249 314.984222,750.338257 302.657562,750.310852 
        C298.298706,750.301147 296.232788,747.789124 296.281952,743.677673 
        C296.330994,739.573059 298.947418,737.839844 302.810944,737.693176 
        C306.611298,737.549011 310.471771,738.028442 314.743439,736.411926 
        C310.314392,734.103577 304.818542,734.616882 302.278595,729.824646 
        C299.957245,725.444763 301.059631,721.005188 305.562408,717.100098 
        C302.166321,710.416565 303.546051,707.306091 311.009155,706.055603 
        C316.429260,705.147461 322.016998,705.099304 327.432373,706.028931 
        C337.066132,707.682678 340.428772,711.993408 340.335632,721.742249 
        C340.319855,723.394348 340.072174,725.044250 339.757080,727.080322 
    M315.472961,721.630066 
        C319.477051,721.463928 323.786407,722.964294 327.666718,719.891663 
        C323.518036,716.398254 315.756775,716.422546 312.105591,719.567444 
        C312.470825,720.887329 313.642975,721.135437 315.472961,721.630066 
    z"/>
    <path opacity="1.000000" stroke="none" 
        d="
    M698.832031,367.847870 
        C693.789062,371.696655 689.087830,375.410767 684.228638,378.905212 
        C678.779114,382.824219 672.733887,382.115204 669.200317,377.365265 
        C665.116638,371.875854 665.815002,366.802856 671.712646,362.279633 
        C683.984314,352.867798 696.341003,343.564728 708.764343,334.353943 
        C712.720093,331.421143 717.104858,331.095428 721.321350,333.998871 
        C725.059937,336.573242 725.744629,340.425446 725.274719,344.617249 
        C724.906982,347.897705 722.638062,349.867523 720.212830,351.697968 
        C713.178772,357.006989 706.140564,362.310516 698.832031,367.847870 
    z"/>
    <path opacity="1.000000" stroke="none" 
        d="
    M384.586792,299.352417 
        C379.077789,287.753845 373.642883,276.533234 368.422363,265.213715 
        C365.572296,259.033966 367.363495,253.948547 372.876068,251.410904 
        C378.607941,248.772324 384.144653,250.730057 386.993774,256.611786 
        C393.659637,270.372650 400.282471,284.154938 406.818878,297.977692 
        C409.903687,304.501282 408.350952,309.519989 402.657074,312.356476 
        C397.061523,315.143921 391.840363,313.297638 388.543457,307.270386 
        C387.188293,304.792969 386.009399,302.219116 384.586792,299.352417 
    z"/>
    <path opacity="1.000000" stroke="none" 
        d="
    M320.220215,348.761993 
        C322.782257,350.919708 325.118378,352.796844 327.350494,354.790436 
        C332.096069,359.028809 332.807037,364.803406 329.223328,369.391907 
        C325.554749,374.089050 319.741882,374.930786 314.686066,370.859009 
        C302.381714,360.949463 290.210846,350.869385 278.151733,340.662445 
        C273.609344,336.817688 273.275665,330.554565 276.820618,326.375488 
        C280.763763,321.726990 286.489166,321.067169 291.449066,325.067535 
        C301.026947,332.792419 310.456268,340.701447 320.220215,348.761993 
    z"/>
    <path opacity="1.000000" stroke="none" 
        d="
    M501.960815,346.880676 
        C501.738342,360.994965 501.516998,374.625916 501.285919,388.256744 
        C501.266144,389.420868 501.246613,390.591309 501.114105,391.745880 
        C500.787079,394.593811 499.668854,397.346588 496.564087,397.428375 
        C493.470825,397.509796 493.538422,394.301697 493.169403,392.147736 
        C492.751190,389.706573 492.744934,387.176056 492.747162,384.684509 
        C492.774658,353.730438 492.830139,322.776367 492.906372,291.822327 
        C492.910431,290.168976 493.077850,288.503510 493.320343,286.866058 
        C493.710205,284.233032 495.879089,283.284912 497.996887,283.100586 
        C500.522919,282.880707 500.649139,285.355988 500.812042,287.037750 
        C501.324890,292.331818 501.828186,297.648499 501.882996,302.961090 
        C502.032471,317.438568 501.949951,331.918427 501.960815,346.880676 
    z"/>
    <path opacity="1.000000" stroke="none" 
        d="
    M337.263245,563.896729 
        C327.902985,564.172974 318.940216,564.515076 309.992554,564.280029 
        C302.480804,564.082764 299.189178,558.306702 302.216125,551.395630 
        C302.675262,550.347351 303.315002,549.378235 303.963654,548.205261 
        C303.358246,547.412048 302.644684,546.701355 302.195404,545.851013 
        C299.856567,541.424255 301.849884,537.800659 306.879211,537.721252 
        C315.841858,537.579773 324.810089,537.573853 333.772461,537.722473 
        C338.613037,537.802734 340.846710,541.946716 338.198242,545.999390 
        C335.861816,549.574585 335.284790,552.257507 338.955811,555.620544 
        C341.649139,558.087830 340.725433,561.413696 337.263245,563.896729 
    z"/>
    <path opacity="1.000000" stroke="none" 
        d="
    M314.671143,589.288696 
        C307.076111,588.813843 305.456024,586.121643 307.524719,578.002441 
        C305.986481,576.634644 304.073975,577.431580 302.348633,577.216492 
        C298.489929,576.735657 296.071533,574.835876 296.319489,570.750671 
        C296.551514,566.927856 298.773438,565.412964 302.682129,565.464050 
        C314.148834,565.614136 325.619171,565.469666 337.088043,565.479187 
        C343.722961,565.484741 345.572235,566.755859 345.568268,571.146606 
        C345.564270,575.567505 343.598389,577.013306 337.295349,577.262329 
        C336.318817,577.300842 335.345520,577.420532 333.969330,577.536499 
        C334.808136,581.658813 336.794739,586.124634 331.848206,588.566772 
        C327.769318,590.580444 324.107483,589.186951 321.225006,585.799561 
        C318.900269,586.771851 317.575317,589.084961 314.671143,589.288696 
    z"/>
    <path opacity="1.000000" stroke="none" 
        d="
    M243.646393,508.281738 
        C242.365219,508.300873 241.532974,508.309601 240.700714,508.309021 
        C226.614624,508.299347 220.965866,498.517914 227.998825,486.314301 
        C228.327896,485.743286 228.666153,485.177582 229.062927,484.502594 
        C228.129929,483.120758 227.003983,481.868134 226.348129,480.404785 
        C224.303680,475.843323 226.687042,471.836487 231.570694,471.675354 
        C235.893311,471.532715 240.228851,471.557312 244.551788,471.707214 
        C249.489975,471.878479 251.993515,474.108948 252.186859,479.070374 
        C252.458832,486.050690 252.397491,493.050964 252.254150,500.038116 
        C252.148178,505.203979 249.200577,507.888245 243.646393,508.281738 
    M239.670975,484.006866 
        C237.437607,483.259186 234.721252,482.411682 233.688919,485.128693 
        C232.651917,487.857941 232.885330,491.080231 235.061630,493.487610 
        C236.916656,495.539612 240.233429,494.588989 240.721298,491.842072 
        C241.147125,489.444519 241.256866,486.936554 239.670975,484.006866 
    z"/>
    <path opacity="1.000000" stroke="none" 
        d="
    M301.826233,638.411133 
        C301.973969,637.642029 302.154938,636.950012 301.909882,636.727905 
        C298.526672,633.660522 297.611420,629.977539 299.607849,625.920959 
        C301.546387,621.982056 305.454437,622.807251 308.879944,622.743896 
        C312.041290,622.685425 315.207703,622.649048 318.366425,622.759094 
        C323.198944,622.927307 325.347076,625.198059 325.343567,629.921936 
        C325.340149,634.518555 323.532654,636.232666 318.487701,636.357605 
        C316.657990,636.402954 314.820862,636.269043 312.996338,636.375244 
        C310.168640,636.539978 307.042145,636.360046 307.317810,640.724792 
        C307.561768,644.586548 308.515564,647.703735 313.269684,647.638611 
        C315.100098,647.613464 316.931305,647.656921 318.762115,647.651672 
        C324.821960,647.634399 327.191406,649.578735 327.368500,654.726624 
        C327.570282,660.592529 325.167786,663.044495 318.958527,663.262390 
        C317.462372,663.314941 315.953369,663.378601 314.466400,663.250366 
        C308.742126,662.756653 302.672821,662.183411 300.013641,656.212463 
        C297.404907,650.354919 297.653198,644.215637 301.826233,638.411133 
    z"/>
    <path opacity="1.000000" stroke="none" 
        d="
    M341.702332,477.651550 
        C342.391205,481.449249 341.639130,484.482574 338.214417,485.875183 
        C334.964325,487.196838 332.002045,486.002686 329.587311,483.593750 
        C328.414703,482.423981 327.420258,481.077789 326.305664,479.847229 
        C323.812408,477.094604 320.956604,476.607727 317.876526,478.767303 
        C315.023407,480.767761 312.315979,482.976257 309.458313,484.969788 
        C306.309113,487.166718 303.158875,487.146698 300.533630,484.151947 
        C297.862030,481.104309 297.739502,477.681763 300.521179,474.722748 
        C306.121155,468.765625 312.922211,464.220764 319.458984,459.392578 
        C322.248596,457.332031 325.425323,456.966949 328.117249,459.570953 
        C330.835480,462.200348 331.056061,465.372162 329.160278,468.668701 
        C328.761230,469.362640 328.428314,470.094604 327.818726,471.293152 
        C333.095245,472.195190 339.066956,471.101044 341.702332,477.651550 
    z"/>
    <path opacity="1.000000" stroke="none" 
        d="
    M329.654999,664.843079 
        C329.657806,651.928955 329.639252,639.458008 329.670898,626.987244 
        C329.684143,621.773743 331.834869,619.057678 335.803040,619.051758 
        C339.814789,619.045776 342.194824,621.745544 342.231262,626.891846 
        C342.319733,639.380981 342.274170,651.871277 342.228912,664.360962 
        C342.215179,668.156738 340.567322,670.906555 336.513733,671.227478 
        C332.409698,671.552490 329.757507,669.785950 329.654999,664.843079 
    z"/>
    <path opacity="1.000000" stroke="none" 
        d="
    M235.292389,570.010925 
        C239.239517,571.132935 242.913086,570.497559 246.548294,570.715332 
        C251.207703,570.994629 254.078171,574.072021 254.073090,578.823547 
        C254.068192,583.406067 251.392197,586.192200 246.703674,586.495667 
        C246.537872,586.506409 246.371658,586.511658 246.205597,586.517822 
        C229.934555,587.123596 226.669617,583.950989 226.682892,567.445007 
        C226.686234,563.293701 226.611481,559.124207 226.965118,554.996643 
        C227.287827,551.230469 229.073166,548.274109 233.308014,547.858337 
        C236.382782,547.556396 238.951294,548.555298 240.162506,551.639099 
        C241.693222,555.536316 240.724472,558.817627 237.323578,561.286072 
        C234.251892,563.515564 230.776596,565.574402 235.292389,570.010925 
    z"/>
    <path opacity="1.000000" stroke="none" 
        d="
    M316.063995,489.628632 
        C324.049530,489.640076 331.546051,489.713440 339.041046,489.637024 
        C343.385071,489.592743 345.566895,491.569641 345.584564,495.915192 
        C345.602356,500.294159 343.234344,502.301514 339.040924,502.314728 
        C327.047302,502.352539 315.052765,502.420258 303.060242,502.303528 
        C298.277008,502.257019 296.152618,499.971283 296.252045,495.574677 
        C296.352478,491.134644 298.888763,489.455505 303.086273,489.556946 
        C307.247131,489.657562 311.411499,489.610199 316.063995,489.628632 
    z"/>
    <path opacity="1.000000" stroke="none" 
        d="
    M267.353333,585.808716 
        C267.206268,592.063477 265.542267,594.338562 261.524384,594.246643 
        C257.663483,594.158325 255.700287,591.495544 255.680389,586.042419 
        C255.637878,574.397400 255.659164,562.752136 255.669601,551.106934 
        C255.673386,546.893372 257.515991,544.533264 262.027802,544.686157 
        C265.803375,544.814087 267.391449,546.802063 267.384338,550.407349 
        C267.366272,559.551270 267.368042,568.695129 267.361908,577.839050 
        C267.360229,580.337769 267.358704,582.836426 267.353333,585.808716 
    z"/>
    <path opacity="1.000000" stroke="none" 
        d="
    M255.651428,500.988251 
        C255.655685,491.825378 255.718567,483.159241 255.638474,474.494446 
        C255.600113,470.344177 257.036530,467.732697 261.581116,467.626434 
        C266.354095,467.514801 267.413086,470.382050 267.388885,474.438995 
        C267.317261,486.437225 267.287750,498.436676 267.389984,510.434387 
        C267.423584,514.376953 266.140778,517.144531 261.911346,517.163452 
        C257.722961,517.182129 255.539642,514.825256 255.655075,510.484100 
        C255.734772,507.486725 255.658127,504.485199 255.651428,500.988251 
    z"/>
    <path opacity="1.000000" stroke="none" 
        d="
    M285.193237,555.776489 
        C285.596405,557.354614 285.905365,558.621094 286.282776,560.168213 
        C283.246674,561.285522 280.355347,561.957703 277.917114,559.548035 
        C276.707489,558.352661 277.399872,556.548767 278.545502,555.514038 
        C280.607971,553.651245 282.899323,553.218933 285.193237,555.776489 
    z"/>
    <path opacity="1.000000" stroke="none" 
        d="
    M668.815735,609.243408 
        C671.146606,614.020813 674.193420,614.346313 678.410034,612.166992 
        C681.930298,610.347473 686.839844,608.120911 689.372375,612.024780 
        C692.206909,616.394165 694.667114,619.930054 699.840088,621.903809 
        C702.428467,622.891479 702.674194,626.919495 701.399658,630.018921 
        C699.505127,634.626099 699.869568,638.035217 705.053284,640.634155 
        C708.716003,642.470337 711.654419,645.790588 711.402100,650.619934 
        C711.367371,651.283936 711.613281,652.192078 711.269775,652.575134 
        C707.817932,656.425171 
        C705.410889,661.152954 702.071838,664.898315 
        C698.098267,669.355225 692.440674,667.239807 687.614075,665.115601 
        C683.400024,663.261108 680.800110,664.494507 678.638184,668.405457 
        C674.431641,676.014648 666.776184,677.998779 659.675903,673.159790 
        C655.900696,670.586853 652.399170,668.244690 647.505005,668.323853 
        C643.921082,668.381836 642.260986,665.411194 642.157288,662.188599 
        C642.032043,658.294800 639.853088,657.072327 636.557373,656.496033 
        C630.643311,655.461975 625.478821,652.958740 621.596252,648.230530 
        C619.068665,645.152283 618.007263,641.862793 620.444519,638.176270 
        C620.899963,637.487427 621.560730,636.690979 621.535461,635.964783 
        C621.257812,627.997864 626.387085,626.314453 632.834717,625.996826 
        C637.185303,625.782593 639.184937,623.630859 638.401428,619.115784 
        C638.120178,617.494995 638.189758,615.787659 638.292114,614.131714 
        C638.475708,611.162170 639.601685,607.521362 642.095581,607.004333 
        C647.909851,605.798767 652.980347,602.343140 658.744812,601.668274 
        C663.665894,601.092041 666.286560,605.177795 668.815735,609.243408 
    z"/>
    <path opacity="1.000000" stroke="none" 
        d="
    M519.646973,477.524994 
        C515.836731,479.450226 516.268494,481.890564 518.082092,484.665527 
        C522.520691,491.457001 529.652649,493.888550 537.523376,491.222229 
        C537.837463,491.115875 538.129089,490.925385 538.448914,490.856445 
        C540.213257,490.476105 542.307007,489.622406 543.166809,491.993347 
        C543.964294,494.192657 542.213806,495.248047 540.485474,496.107452 
        C532.056580,500.298706 519.705688,498.432098 514.834778,490.419067 
        C510.078125,482.594147 504.990509,482.264435 497.276215,484.685455 
        C491.659271,486.448273 485.378387,486.316803 479.777130,483.396210 
        C478.053741,482.497589 476.526489,481.096283 475.153595,479.687225 
        C473.749268,478.245911 473.339600,476.448853 475.003265,474.828339 
        C476.622864,473.250854 478.152649,474.122437 479.335571,475.401886 
        C485.845673,482.443268 493.347687,480.707153 500.963226,477.930542 
        C504.479156,476.648651 506.128387,474.405792 505.790527,470.319183 
        C505.246857,463.743622 507.653442,461.913971 514.084351,463.529022 
        C516.322937,464.091187 518.506592,464.989716 520.600952,465.977203 
        C522.986023,467.101807 525.812805,468.193420 525.752991,471.422455 
        C525.687134,474.974121 523.037476,476.493011 519.646973,477.524994 
    z"/>
    <path opacity="1.000000" stroke="none" 
        d="
    M454.406738,586.446777 
        C451.547058,588.033447 449.643768,590.006409 448.473480,592.728699 
        C447.467316,595.069153 447.249146,597.955750 444.557220,599.200928 
        C442.613342,598.685181 442.373749,597.055359 441.920990,595.694763 
        C440.304962,590.838440 437.380493,587.274841 432.444336,585.513245 
        C431.057678,585.018433 429.359222,584.528748 429.403534,582.682434 
        C429.444794,580.963440 430.940491,580.225037 432.367889,579.679260 
        C437.381042,577.762268 440.705017,574.378784 441.890747,569.027893 
        C442.187592,567.688293 442.850037,566.374512 444.444366,566.376953 
        C445.989410,566.379333 446.809937,567.658630 447.161926,568.941040 
        C448.678070,574.465393 451.831329,578.379211 457.435486,580.167480 
        C458.546570,580.521973 459.549103,581.450073 459.254059,582.815308 
        C458.744568,585.173035 456.397400,585.330811 454.406738,586.446777 
    z"/>
    <path opacity="1.000000" stroke="none" 
        d="
    M673.057495,714.887817 
        C674.728210,718.427307 677.561218,720.101318 680.567688,721.606506 
        C682.672913,722.660461 684.213074,724.791931 681.561646,725.973633 
        C675.472229,728.687683 672.312500,733.593567 670.327271,739.060364 
        C668.390137,739.415710 667.850769,738.526794 667.521973,737.584167 
        C665.731445,732.451050 662.595459,728.864868 657.281433,726.892212 
        C653.955811,725.657654 654.094482,723.302734 657.402954,721.702942 
        C661.588257,719.679199 665.000122,717.043823 666.221924,712.235107 
        C666.608826,710.712341 666.747742,708.545166 668.799866,708.409729 
        C671.318359,708.243469 671.054260,710.810669 671.826477,712.318420 
        C672.203918,713.055542 672.538025,713.814941 673.057495,714.887817 
    z"/>
    <path opacity="1.000000" stroke="none" 
        d="
    M575.993286,488.217010 
        C574.065735,487.598846 572.379089,487.212158 571.037354,486.311584 
        C565.760681,482.769806 560.050842,480.872223 553.662292,480.932831 
        C550.881287,480.959229 547.990540,480.524109 547.907898,476.902985 
        C547.831909,473.573975 550.146301,471.507050 553.126709,471.110809 
        C562.656677,469.843842 571.372681,472.270233 578.751770,478.426025 
        C582.297546,481.383972 580.968140,485.999603 575.993286,488.217010 
    z"/>
    <path opacity="1.000000" stroke="none" 
        d="
    M613.341736,509.609467 
        C605.308167,507.203461 597.564758,505.432037 589.500366,505.509064 
        C587.256287,505.530487 584.816345,505.360107 584.828247,502.357544 
        C584.839294,499.565247 587.217285,498.924042 589.416931,498.775787 
        C596.293396,498.312225 602.955933,499.987152 609.579590,501.402130 
        C615.758179,502.722015 621.680481,505.031189 627.088074,508.426941 
        C628.972656,509.610321 630.974792,511.145599 629.826721,513.597107 
        C628.595947,516.225342 626.267944,515.285767 624.206787,514.367126 
        C620.714844,512.810669 617.212585,511.277313 613.341736,509.609467 
    z"/>
    <path opacity="1.000000" stroke="none" 
        d="
    M471.465576,443.127197 
        C477.202515,443.338104 482.438080,444.008881 487.089294,447.007965 
        C489.074005,448.287720 490.917419,449.729950 492.155060,451.737640 
        C493.793365,454.395172 494.997437,457.331787 492.184326,459.865601 
        C489.546112,462.241821 486.857697,461.048950 484.596375,458.992828 
        C480.803040,455.543823 476.330902,453.516693 471.466858,452.114136 
        C469.357727,451.505890 467.321106,450.471588 467.303284,447.785797 
        C467.286621,445.277405 468.657776,443.783508 471.465576,443.127197 
    z"/>
    <path opacity="1.000000" stroke="none" 
        d="
    M608.072388,525.938232 
        C601.832397,523.122314 596.112793,520.058655 589.919922,518.045654 
        C587.678406,517.317017 585.264343,516.067566 586.144897,513.114807 
        C587.054504,510.064392 589.570251,510.700806 591.944214,511.317474 
        C600.563904,513.556458 608.530701,517.156067 615.659180,522.530151 
        C616.583435,523.226990 617.541199,523.943726 618.261780,524.831177 
        C619.294128,526.102783 620.512817,527.562805 619.108215,529.242188 
        C617.972351,530.600342 616.396301,530.351562 614.985718,529.643921 
        C612.760925,528.527710 610.593384,527.297363 608.072388,525.938232 
    z"/>
</g>

<!-- Grupo de detalles color rosa (Flores, manchas, detalles) - Color: Rosa Pastel -->
<g fill="#FFC1CC">
    <path opacity="1.000000" stroke="none" 
        d="
    M281.201721,387.014771 
        C279.379272,386.420227 278.196838,384.718567 275.728180,385.991974 
        C280.461884,390.319580 285.905273,393.167206 290.785980,396.752228 
        C293.198761,398.524506 295.751587,400.123260 298.048492,402.032257 
        C301.684326,405.053925 302.450134,408.938660 300.777588,413.300781 
        C299.031921,417.853607 295.348206,418.946136 291.025818,418.288055 
        C283.594208,417.156586 276.583771,414.410400 269.418396,412.270782 
        C267.044708,411.561981 264.736694,410.694824 261.536316,410.935852 
        C263.485352,413.059998 265.641754,413.831329 267.663696,414.799469 
        C273.220947,417.460419 278.821289,420.036133 284.321198,422.810852 
        C290.197510,425.775452 292.002899,430.808624 289.464417,436.540436 
        C287.115021,441.845276 282.585693,443.742615 276.578003,440.969147 
        C262.671204,434.548950 248.886459,427.853516 235.187897,420.998566 
        C229.975876,418.390381 228.083435,413.167755 229.409821,407.455536 
        C230.944122,400.847992 234.737518,397.421173 240.833588,396.688812 
        C246.310257,396.030884 251.365967,397.908966 256.555237,398.935242 
        C261.770844,399.966705 266.901031,401.430664 272.117035,402.459656 
        C273.957245,402.822693 275.919220,403.960938 277.913940,402.627655 
        C278.361694,400.600525 276.537048,400.135895 275.511261,399.274750 
        C268.241760,393.172333 260.858002,387.205414 253.617325,381.069458 
        C250.155731,378.135986 248.389313,374.432373 248.569901,369.654938 
        C248.945175,359.727173 257.674469,353.546844 266.669983,357.649689 
        C280.453796,363.936523 294.050781,370.643799 307.607513,377.412018 
        C312.822113,380.015381 314.189301,385.187469 311.759460,390.603210 
        C309.588470,395.442047 305.278717,397.430908 299.746002,395.313171 
        C293.542480,392.938721 287.591766,389.903748 281.201721,387.014771 
    z"/>
    <path opacity="1.000000" stroke="none" 
        d="
    M309.621155,292.358459 
        C315.251160,289.093170 320.484985,289.486206 325.432831,292.863617 
        C333.266083,298.210663 340.983917,303.726715 348.771271,309.141418 
        C349.691681,309.781372 350.450409,310.806946 352.258453,310.668365 
        C348.443237,304.246185 343.748688,298.759308 339.368011,293.053497 
        C337.041870,290.023773 334.367737,287.253326 332.774689,283.695007 
        C330.802521,279.289734 331.751923,275.428253 335.275635,272.427704 
        C338.859955,269.375458 342.954742,268.431458 347.164703,271.403748 
        C348.510345,272.353760 349.872009,273.407776 350.882324,274.686096 
        C359.241760,285.263214 367.657745,295.800446 375.782928,306.556488 
        C383.172577,316.338867 381.164856,325.402008 371.074768,330.043518 
        C365.863159,332.440887 361.166901,330.838257 356.883057,328.138397 
        C350.978027,324.416687 345.419525,320.147797 339.670166,316.174652 
        C338.249634,315.192963 337.093445,313.510712 334.873138,313.941742 
        C334.458862,316.299377 336.207550,317.612000 337.330566,319.112762 
        C341.119049,324.175537 345.123596,329.078247 348.857269,334.179962 
        C352.735504,339.479279 352.223480,344.907379 347.779846,348.379456 
        C342.756561,352.304474 337.624908,351.980133 333.318573,346.660065 
        C324.103699,335.275848 315.031219,323.764832 306.264374,312.033783 
        C300.741272,304.643188 301.966156,298.605408 309.621155,292.358459 
    z"/>
    <path opacity="1.000000" stroke="none" 
        d="
    M631.689636,338.300720 
        C620.326660,325.445282 624.194336,309.294861 640.402832,300.709259 
        C643.194946,299.230286 646.103760,298.040802 649.286804,297.555511 
        C651.745972,297.180542 652.520264,295.906128 651.627502,293.293365 
        C649.730591,287.742004 651.626526,282.299072 656.117981,279.345306 
        C660.432251,276.508026 664.856201,277.087463 669.754333,281.264618 
        C673.549561,284.501221 677.400818,287.692078 680.979980,291.158569 
        C694.524841,304.277130 695.677063,317.412689 684.887756,332.927643 
        C681.621155,337.625000 677.612366,341.637543 673.178162,345.122742 
        C662.739868,353.326965 650.537903,353.157776 639.634888,344.915131 
        C636.984619,342.911530 634.513672,340.670685 631.689636,338.300720 
    M663.962036,302.937683 
        C662.925903,302.482758 661.920471,302.691101 661.227905,303.473663 
        C656.622009,308.677734 652.054749,313.916382 647.513611,319.177094 
        C646.858276,319.936310 646.571350,320.871796 646.928040,321.949310 
        C648.372437,326.313904 657.284424,330.227478 661.534424,328.334045 
        C673.991211,322.784424 675.370300,311.321136 663.962036,302.937683 
    z"/>
    <path opacity="1.000000" stroke="none" 
        d="
    M690.215149,405.763153 
        C691.232117,388.221619 703.345947,375.605072 721.545898,372.662384 
        C739.229553,369.803162 750.105225,375.464081 756.338257,391.654572 
        C760.501160,402.467865 759.677734,413.146881 751.225403,421.822968 
        C740.639038,432.689758 727.729248,437.891754 712.384460,435.126251 
        C700.923096,433.060669 691.969788,421.136658 690.215149,405.763153 
    M719.345520,386.629059 
        C716.117737,388.051422 713.368469,390.264648 713.409119,393.918152 
        C713.521362,404.023682 717.426147,412.527527 725.301453,419.046478 
        C728.242249,421.480804 731.154114,420.734985 733.976379,418.803589 
        C736.877869,416.818024 739.047607,414.188660 738.295166,410.524719 
        C736.744263,402.972870 733.740417,396.001434 728.796204,389.978271 
        C726.542908,387.233307 723.787781,385.664246 719.345520,386.629059 
    z"/>
    <path opacity="1.000000" stroke="none" 
        d="
    M598.562622,267.486816 
        C596.382080,272.572266 594.201965,277.257385 592.405334,282.085236 
        C590.756470,286.516235 593.217346,290.851044 597.964783,293.355927 
        C602.709106,295.859222 605.586243,293.441193 607.959961,289.859253 
        C611.175598,285.006836 612.095459,279.387177 612.593323,273.736450 
        C612.948364,269.706635 613.789001,265.867004 615.487305,262.189697 
        C618.081360,256.572754 623.793884,253.928940 629.502502,255.790268 
        C634.749207,257.501007 637.661804,262.588135 636.559448,268.531250 
        C635.513306,274.171204 632.447937,279.041626 630.141602,284.187622 
        C627.420166,290.259888 624.682068,296.350891 621.484863,302.177917 
        C615.785339,312.565338 605.876282,316.685242 594.409790,313.549805 
        C582.994507,310.428406 573.344849,305.059784 570.164856,292.429688 
        C568.052124,284.038605 571.685669,276.695496 574.833496,269.396210 
        C578.126099,261.761353 581.870789,254.319351 585.494202,246.829941 
        C588.449890,240.720444 593.411133,239.068069 599.509705,242.035263 
        C605.062988,244.737122 606.723633,249.460022 604.119324,255.338013 
        C602.366455,259.294189 600.529541,263.213104 598.562622,267.486816 
    z"/>
</g>
</svg>